<svg xmlns="http://www.w3.org/2000/svg" viewBox="0 0 272.57 106.98"><defs><style>.cls-1{fill:#29398a;}.cls-2{fill:#fff;}.cls-3{fill:#555c66;}.cls-4{fill:#e8b625;}.cls-5{fill:#868f94;}.cls-6{fill:#f3c928;}</style></defs><title>logo</title><g id="Capa_2" data-name="Capa 2"><path class="cls-1" d="M101,53.69c0,1-1.89,2-2,3s1.69,2.22,1.56,3.22-2.14,1.71-2.33,2.71S99.65,65,99.39,66s-2.34,1.42-2.66,2.37,1,2.58.66,3.51-2.5,1.1-3,2,.71,2.69.2,3.56-2.63.76-3.19,1.61.35,2.75-.27,3.56-2.7.41-3.37,1.17,0,2.78-.72,3.5-2.74,0-3.5.72-.37,2.76-1.17,3.38-2.72-.31-3.57.26-.72,2.68-1.6,3.19-2.65-.65-3.56-.2-1.07,2.56-2,3-2.54-1-3.51-.66-1.39,2.4-2.38,2.66-2.38-1.32-3.39-1.12-1.69,2.2-2.7,2.33-2.2-1.63-3.22-1.56-2,2-3,2-2-1.89-3-2-2.21,1.69-3.21,1.56-1.72-2.14-2.71-2.33-2.41,1.38-3.39,1.12-1.42-2.34-2.38-2.66-2.57,1-3.51.66-1.09-2.5-2-3-2.69.71-3.57.2-.76-2.63-1.6-3.19-2.76.35-3.56-.27-.41-2.7-1.17-3.37-2.78,0-3.5-.72-.06-2.74-.73-3.5-2.75-.37-3.37-1.18.3-2.71-.26-3.56-2.69-.72-3.2-1.6.66-2.65.21-3.56-2.57-1.07-3-2,1-2.54.67-3.51S7.87,67,7.6,66,8.93,63.6,8.73,62.6s-2.2-1.7-2.33-2.71S8,57.69,8,56.67s-2-2-2-3,1.89-2,2-3S6.27,48.49,6.4,47.49s2.13-1.72,2.33-2.71S7.34,42.37,7.6,41.39,9.94,40,10.27,39,9.21,36.44,9.6,35.5s2.51-1.09,3-2-.71-2.69-.21-3.57,2.63-.76,3.2-1.6-.36-2.76.26-3.56,2.7-.41,3.37-1.17,0-2.78.73-3.5,2.73-.06,3.5-.73.36-2.75,1.17-3.37,2.72.3,3.56-.26.72-2.69,1.6-3.2,2.66.66,3.57.21,1.06-2.57,2-3,2.54,1,3.5.67,1.39-2.4,2.38-2.67,2.39,1.33,3.39,1.13,1.69-2.2,2.71-2.33,2.19,1.62,3.21,1.56,2-2,3-2,2,1.89,3,2S58.7,6.46,59.7,6.59s1.71,2.13,2.71,2.33,2.41-1.39,3.39-1.13,1.41,2.34,2.37,2.67,2.58-1.06,3.51-.67,1.1,2.51,2,3,2.69-.71,3.56-.21.76,2.63,1.61,3.2,2.75-.36,3.56.26.41,2.71,1.17,3.38,2.78,0,3.5.72,0,2.73.72,3.5,2.76.36,3.38,1.17-.31,2.72.26,3.56,2.68.72,3.19,1.6-.65,2.66-.2,3.57,2.56,1.06,3,2-1,2.54-.67,3.5,2.4,1.39,2.66,2.38-1.32,2.39-1.12,3.39,2.2,1.69,2.33,2.71S99,49.68,99,50.7,101,52.66,101,53.69Z"/><path class="cls-2" d="M53.44,96.05c-23.74,0-43-19.09-43-42.55S29.7,11,53.44,11,96.5,30,96.5,53.5,77.18,96.05,53.44,96.05Zm0-84.46C30.06,11.59,11,30.39,11,53.5s19,41.91,42.41,41.91S95.85,76.61,95.85,53.5,76.83,11.59,53.44,11.59Z"/><path class="cls-1" d="M137.37,75.31H115.48a4.06,4.06,0,0,1-4.07-4.07,3.83,3.83,0,0,1,1.19-2.86,4,4,0,0,1,2.88-1.16h21.89a4.45,4.45,0,0,0,2.5-.76,4.79,4.79,0,0,0,1.63-2q.12-.41.24-.84a3.82,3.82,0,0,0,.11-.9,4.46,4.46,0,0,0-.75-2.45,4.92,4.92,0,0,0-2-1.63,4.48,4.48,0,0,0-1.75-.35H124a11.84,11.84,0,0,1-7-2.15,12.19,12.19,0,0,1-2.68-2.39,11.67,11.67,0,0,1-1.86-3.08,12.57,12.57,0,0,1-1-4.95A11.74,11.74,0,0,1,112,42a14,14,0,0,1,1.57-3.29A12.59,12.59,0,0,1,124,33.22h21.89a4,4,0,0,1,2.88,1.17,3.79,3.79,0,0,1,1.19,2.85,4.06,4.06,0,0,1-4.07,4.07H124a4.34,4.34,0,0,0-2.5.76,4.44,4.44,0,0,0-1.63,2l-.24.81a3.6,3.6,0,0,0-.11.88,4.29,4.29,0,0,0,.76,2.5,4.83,4.83,0,0,0,2,1.63,4.2,4.2,0,0,0,1.75.35h13.39a11.84,11.84,0,0,1,7,2.15,12,12,0,0,1,2.68,2.39A11.56,11.56,0,0,1,149,57.85a12.35,12.35,0,0,1,1,4.89,11.87,11.87,0,0,1-.58,3.75,13.85,13.85,0,0,1-1.57,3.29,12,12,0,0,1-5.53,4.54A12.35,12.35,0,0,1,137.37,75.31Z"/><path class="cls-3" d="M160.61,62.74a4.3,4.3,0,0,0,1.26,3.14A4.25,4.25,0,0,0,165,67.16h20.78a4.08,4.08,0,1,1,0,8.15H165a12.18,12.18,0,0,1-4.78-1,12.68,12.68,0,0,1-6.72-6.64,12.11,12.11,0,0,1-1-5v-17a12.12,12.12,0,0,1,1-5,12.68,12.68,0,0,1,6.72-6.64,12.18,12.18,0,0,1,4.78-1h20.78a4.08,4.08,0,1,1,0,8.15H165a4.2,4.2,0,0,0-3.17,1.31,4.35,4.35,0,0,0-1.26,3.12v4.48h25a4,4,0,0,1,2.88,1.16,3.86,3.86,0,0,1,1.19,2.86,4.06,4.06,0,0,1-4.07,4.07h-25Z"/><path class="cls-3" d="M216,71.76V47.37L189.2,74.15a3.81,3.81,0,0,1-2.79,1.16,4.54,4.54,0,0,1-1.49-.26,4.46,4.46,0,0,1-2.21-2.21,4.49,4.49,0,0,1-.26-1.49,3.78,3.78,0,0,1,1.17-2.79L217.21,35A3.78,3.78,0,0,1,220,33.8a4.26,4.26,0,0,1,1.51.29A4.05,4.05,0,0,1,224,37.76v34a3.75,3.75,0,0,1-1.17,2.82A3.95,3.95,0,0,1,216,71.76Z"/><path class="cls-3" d="M233,73.16a12.09,12.09,0,0,1-4.54-5.53,12.43,12.43,0,0,1-1-4.89V37.24a4,4,0,0,1,1.17-2.88,3.81,3.81,0,0,1,2.85-1.2,4.1,4.1,0,0,1,4.08,4.08v25.5a4.74,4.74,0,0,0,.75,2.5,3.74,3.74,0,0,0,1.6,1.42,4.57,4.57,0,0,0,2.07.5h20a4.08,4.08,0,1,1,0,8.15H240a11.6,11.6,0,0,1-3.72-.58A14.09,14.09,0,0,1,233,73.16Z"/></g><g id="Layer_5" data-name="Layer 5"><polygon class="cls-4" points="52.66 54.59 29.39 67.69 52.66 80.79 71.7 70.09 71.7 85.15 75.94 85.15 75.94 67.69 52.66 54.59"/><polygon class="cls-2" points="51.69 17.03 28.62 29.46 28.62 29.47 28.59 29.45 28.59 40.23 42.54 47.07 28.59 54.58 28.59 66.22 51.68 53.49 51.66 42.16 51.66 42.16 51.66 41.88 38.61 34.85 51.69 27.81 51.69 17.03"/><path class="cls-5" d="M75,34.78,72.66,34,75,33.24V30.75L75.9,32V29.17L53.45,16.73V53.2l22.46-11,0,23.73,0-29.86L75,37.27Zm-14,11.51-2.37-.76-1.46,2V45.05l-2.37-.77,2.37-.77V41l1.46,2,2.37-.77-1.47,2Zm7.52-7.52L66.22,38l-1.47,2V37.53l-2.37-.77L64.75,36V33.5l1.47,2,2.36-.77-1.46,2Z"/><polygon class="cls-3" points="53.45 53.2 75.93 65.92 75.91 42.19 53.45 53.2"/><polygon class="cls-6" points="75.03 30.75 75.03 33.24 72.66 34.01 75.03 34.77 75.03 37.27 75.9 36.06 75.9 31.95 75.03 30.75"/><polygon class="cls-6" points="58.69 43.04 57.23 41.02 57.23 43.51 54.86 44.28 57.23 45.05 57.23 47.54 58.69 45.53 61.06 46.3 59.59 44.28 61.06 42.27 58.69 43.04"/><polygon class="cls-6" points="66.22 35.52 64.75 33.5 64.75 35.99 62.38 36.76 64.75 37.53 64.75 40.02 66.22 38.01 68.58 38.77 67.12 36.76 68.58 34.75 66.22 35.52"/></g></svg>